<mxfile host="drawio-plugin" modified="2021-10-19T19:50:41.631Z" agent="5.0 (X11; Linux x86_64) AppleWebKit/537.36 (KHTML, like Gecko) Chrome/89.0.4389.114 Safari/537.36" etag="hflIZ1-BZ8ZBke7Tsyjw" version="14.7.4" type="embed"><diagram id="23iRSUPoRavnBvh4doch" name="Page-1"><mxGraphModel dx="1986" dy="439" grid="1" gridSize="10" guides="1" tooltips="1" connect="1" arrows="1" fold="1" page="1" pageScale="1" pageWidth="827" pageHeight="1169" math="0" shadow="0"><root><mxCell id="0"/><mxCell id="1" parent="0"/><mxCell id="7" value="Customers" style="swimlane;childLayout=stackLayout;horizontal=1;startSize=30;horizontalStack=0;rounded=1;fontSize=14;fontStyle=0;strokeWidth=1;resizeParent=0;resizeLast=1;shadow=0;dashed=0;align=center;arcSize=3;" parent="1" vertex="1"><mxGeometry x="50" y="430" width="190" height="120" as="geometry"><mxRectangle x="130" y="430" width="70" height="30" as="alternateBounds"/></mxGeometry></mxCell><mxCell id="8" value="+customer name: VARCHAR&#10;telephone: VARCHAR&#10;address id: serial8" style="align=left;strokeColor=none;fillColor=none;spacingLeft=4;fontSize=14;verticalAlign=top;resizable=0;rotatable=0;part=1;strokeWidth=1;" parent="7" vertex="1"><mxGeometry y="30" width="190" height="90" as="geometry"/></mxCell><mxCell id="18" value="Cars" style="swimlane;childLayout=stackLayout;horizontal=1;startSize=30;horizontalStack=0;rounded=1;fontSize=14;fontStyle=0;strokeWidth=1;resizeParent=0;resizeLast=1;shadow=0;dashed=0;align=center;" parent="1" vertex="1"><mxGeometry x="300" y="430" width="170" height="120" as="geometry"/></mxCell><mxCell id="19" value="+ number: VARCHAR&#10;+ model: VARCHAR&#10;+ branch name: VARCHAR" style="align=left;strokeColor=none;fillColor=none;spacingLeft=4;fontSize=14;verticalAlign=top;resizable=0;rotatable=0;part=1;strokeWidth=1;" parent="18" vertex="1"><mxGeometry y="30" width="170" height="90" as="geometry"/></mxCell><mxCell id="20" value="Branches" style="swimlane;childLayout=stackLayout;horizontal=1;startSize=30;horizontalStack=0;rounded=1;fontSize=14;fontStyle=0;strokeWidth=1;resizeParent=0;resizeLast=1;shadow=0;dashed=0;align=center;" parent="1" vertex="1"><mxGeometry x="580" y="430" width="160" height="120" as="geometry"/></mxCell><mxCell id="21" value="+name: VARCHAR&#10;telephone: VARCHAR&#10;+ address id: serial8" style="align=left;strokeColor=none;fillColor=none;spacingLeft=4;fontSize=14;verticalAlign=top;resizable=0;rotatable=0;part=1;strokeWidth=1;" parent="20" vertex="1"><mxGeometry y="30" width="160" height="90" as="geometry"/></mxCell><mxCell id="24" value="Orders" style="swimlane;childLayout=stackLayout;horizontal=1;startSize=30;horizontalStack=0;rounded=1;fontSize=14;fontStyle=0;strokeWidth=1;resizeParent=0;resizeLast=1;shadow=0;dashed=0;align=center;" parent="1" vertex="1"><mxGeometry x="300" y="630" width="195" height="120" as="geometry"/></mxCell><mxCell id="25" value="+ id: serial8&#10;date rent: date&#10;period: int&#10;+ car number: VARCHAR &#10;+ customer name: VARCHAR" style="align=left;strokeColor=none;fillColor=none;spacingLeft=4;fontSize=14;verticalAlign=top;resizable=0;rotatable=0;part=1;strokeWidth=1;" parent="24" vertex="1"><mxGeometry y="30" width="195" height="90" as="geometry"/></mxCell><mxCell id="33" value="" style="fontSize=14;html=1;endArrow=ERzeroToMany;startArrow=ERmandOne;endSize=16;strokeWidth=1;startSize=5;entryX=-0.003;entryY=0.124;entryDx=0;entryDy=0;entryPerimeter=0;" parent="1" target="25" edge="1"><mxGeometry width="100" height="100" relative="1" as="geometry"><mxPoint x="159" y="551" as="sourcePoint"/><mxPoint x="300" y="680" as="targetPoint"/><Array as="points"><mxPoint x="159" y="590"/><mxPoint x="159" y="671"/></Array></mxGeometry></mxCell><mxCell id="34" value="" style="fontSize=14;html=1;endArrow=ERoneToMany;startArrow=ERmandOne;startSize=5;endSize=16;strokeWidth=1;exitX=0;exitY=0.5;exitDx=0;exitDy=0;entryX=1;entryY=0.5;entryDx=0;entryDy=0;" parent="1" source="21" target="19" edge="1"><mxGeometry width="100" height="100" relative="1" as="geometry"><mxPoint x="330" y="600" as="sourcePoint"/><mxPoint x="430" y="500" as="targetPoint"/></mxGeometry></mxCell><mxCell id="35" value="" style="fontSize=14;html=1;endArrow=ERoneToMany;startArrow=ERmandOne;startSize=5;endSize=16;strokeWidth=1;entryX=0.5;entryY=0;entryDx=0;entryDy=0;" parent="1" target="24" edge="1"><mxGeometry width="100" height="100" relative="1" as="geometry"><mxPoint x="398" y="550" as="sourcePoint"/><mxPoint x="430" y="540" as="targetPoint"/></mxGeometry></mxCell><mxCell id="36" value="Customers_Address" style="swimlane;childLayout=stackLayout;horizontal=1;startSize=30;horizontalStack=0;rounded=1;fontSize=14;fontStyle=0;strokeWidth=1;resizeParent=0;resizeLast=1;shadow=0;dashed=0;align=center;" parent="1" vertex="1"><mxGeometry x="-10" y="610" width="160" height="120" as="geometry"/></mxCell><mxCell id="37" value="id: serial8&#10;city: VARCHAR&#10;street name: VARCHAR&#10;street number: VARCHAR&#10;" style="align=left;strokeColor=none;fillColor=none;spacingLeft=4;fontSize=14;verticalAlign=top;resizable=0;rotatable=0;part=1;strokeWidth=1;" parent="36" vertex="1"><mxGeometry y="30" width="160" height="90" as="geometry"/></mxCell><mxCell id="39" value="Branches_Address" style="swimlane;childLayout=stackLayout;horizontal=1;startSize=30;horizontalStack=0;rounded=1;fontSize=14;fontStyle=0;strokeWidth=1;resizeParent=0;resizeLast=1;shadow=0;dashed=0;align=center;" parent="1" vertex="1"><mxGeometry x="590" y="620" width="180" height="120" as="geometry"/></mxCell><mxCell id="40" value="id: serial8&#10;city: VARCHAR&#10;street name: VARCHAR&#10;street number: VARCHAR&#10;" style="align=left;strokeColor=none;fillColor=none;spacingLeft=4;fontSize=14;verticalAlign=top;resizable=0;rotatable=0;part=1;strokeWidth=1;" parent="39" vertex="1"><mxGeometry y="30" width="180" height="90" as="geometry"/></mxCell><mxCell id="41" value="" style="fontSize=14;html=1;endArrow=ERmandOne;startArrow=ERmandOne;entryX=0.5;entryY=1;entryDx=0;entryDy=0;exitX=0.5;exitY=0;exitDx=0;exitDy=0;endSize=16;startSize=16;strokeWidth=1;" parent="1" source="39" target="21" edge="1"><mxGeometry width="100" height="100" relative="1" as="geometry"><mxPoint x="80" y="620" as="sourcePoint"/><mxPoint x="107.5" y="560" as="targetPoint"/></mxGeometry></mxCell><mxCell id="42" value="Price_list" style="swimlane;childLayout=stackLayout;horizontal=1;startSize=30;horizontalStack=0;rounded=1;fontSize=14;fontStyle=0;strokeWidth=1;resizeParent=0;resizeLast=1;shadow=0;dashed=0;align=center;" parent="1" vertex="1"><mxGeometry x="305" y="270" width="160" height="90" as="geometry"/></mxCell><mxCell id="43" value="+ model: VARCHAR&#10;price: float4" style="align=left;strokeColor=none;fillColor=none;spacingLeft=4;fontSize=14;verticalAlign=top;resizable=0;rotatable=0;part=1;strokeWidth=1;" parent="42" vertex="1"><mxGeometry y="30" width="160" height="60" as="geometry"/></mxCell><mxCell id="44" style="edgeStyle=none;rounded=0;orthogonalLoop=1;jettySize=auto;html=1;exitX=0.5;exitY=1;exitDx=0;exitDy=0;startSize=16;endSize=16;strokeWidth=1;fontSize=14;" parent="42" source="43" target="43" edge="1"><mxGeometry relative="1" as="geometry"/></mxCell><mxCell id="46" value="" style="fontSize=14;html=1;endArrow=ERoneToMany;startArrow=ERmandOne;startSize=5;endSize=16;strokeWidth=1;entryX=0.25;entryY=1;entryDx=0;entryDy=0;exitX=0.5;exitY=0;exitDx=0;exitDy=0;" edge="1" parent="1" source="36" target="8"><mxGeometry width="100" height="100" relative="1" as="geometry"><mxPoint x="170" y="720" as="sourcePoint"/><mxPoint x="182.5" y="640" as="targetPoint"/></mxGeometry></mxCell><mxCell id="47" value="" style="fontSize=14;html=1;endArrow=ERoneToMany;startArrow=ERmandOne;startSize=5;endSize=16;strokeWidth=1;entryX=0.5;entryY=0;entryDx=0;entryDy=0;exitX=0.5;exitY=1;exitDx=0;exitDy=0;" edge="1" parent="1" source="43" target="18"><mxGeometry width="100" height="100" relative="1" as="geometry"><mxPoint x="80" y="620" as="sourcePoint"/><mxPoint x="107.5" y="560" as="targetPoint"/></mxGeometry></mxCell></root></mxGraphModel></diagram></mxfile>